<?xml version="1.0" standalone="no"?><!DOCTYPE svg PUBLIC "-//W3C//DTD SVG 1.1//EN" "http://www.w3.org/Graphics/SVG/1.1/DTD/svg11.dtd"><svg t="1754717556416" class="icon" viewBox="0 0 1024 1024" version="1.1" xmlns="http://www.w3.org/2000/svg" p-id="4259" xmlns:xlink="http://www.w3.org/1999/xlink" width="1024" height="1024"><path d="M495.3 815.4c-6.3 0-12.2-3.2-15.6-8.5-92.9-145.5-80.5-268.3-53.8-345.8 35.4-102.4 119.7-190.2 214.8-223.5C767.4 193.1 833.3 115.5 834 114.7c4.5-5.3 11.6-7.7 18.3-6.2 6.8 1.6 12.1 6.8 13.8 13.5 3.6 14.5 87 357-1.7 520.7-37.6 69.8-113.8 121.7-220.2 150.3-78.8 21.2-145.9 22.3-148.7 22.4h-0.2z m342.3-651.7c-31.6 29-93 76.6-184.6 108.7-64.5 22.6-153.4 88.7-192.1 200.7-23.5 68.1-34.5 175.8 44.4 304.9 48.6-2.7 255.9-22.1 326.8-152.8 66.8-123.4 24-372.3 5.5-461.5z" fill="#00B39B" p-id="4260"></path><path d="M501.7 800.9c-0.8 0-1.7-0.1-2.5-0.2-10.1-1.4-17.2-10.7-15.8-20.8C506.3 612 556.2 482.6 631.5 395c54.8-63.7 104.9-83.1 119-87.5 9.7-3 20.1 2.2 23.3 11.9 3.1 9.6-2 20-11.6 23.2-0.1 0-0.5 0.2-0.6 0.2-19.4 6.1-190.7 70.4-241.5 442.2-1.4 9.2-9.3 15.9-18.4 15.9z" fill="#00B39B" p-id="4261"></path><path d="M445.8 816.4c-101.2 0-178-30.4-228.7-90.6-42.5-50.5-65.9-123-67.5-209.6-1.2-64.4 9.8-113.7 10.2-115.8 2-8.9 10.2-14.9 19.3-14.3 152.6 10.5 234.8 103 263.1 142.3 6 8.3 4.1 19.8-4.2 25.8s-19.8 4.1-25.8-4.2C388 516.3 319.5 439 193 424.4c-7.5 47.2-22.2 189.1 52.5 277.7 47.4 56.2 123.5 82 226.3 76.6 10.2-0.4 18.9 7.3 19.4 17.5s-7.3 18.9-17.5 19.4c-9.5 0.5-18.8 0.8-27.9 0.8z" fill="#00B39B" p-id="4262"></path><path d="M472.7 785.5c-8.9 0-16.8-6.5-18.2-15.6-18.7-117.7-207-255.6-208.9-256.9-8.3-6-10.1-17.5-4.1-25.8s17.5-10.1 25.8-4.1 202.6 148.4 223.7 281c1.6 10.1-5.3 19.5-15.3 21.1-1 0.2-2 0.3-3 0.3z" fill="#00B39B" p-id="4263"></path></svg>